<svg xmlns="http://www.w3.org/2000/svg" width="377.88" height="118.645" viewBox="0 0 390 122.451"><rect xmlns="http://www.w3.org/2000/svg" width="390" height="87" fill="#ffc800" rx="10" ry="10"/><path fill="#000" d="M20.957 67.403a.974.974 0 0 1-.957-.957v-44.09c0-.516.442-.957.957-.957h9.569c.515 0 .957.441.957.956v18.108h16.635V22.355c0-.515.441-.956.957-.956h9.569c.515 0 .956.441.956.956v44.09a.974.974 0 0 1-.956.958h-9.57a.974.974 0 0 1-.956-.957V50.62H31.483v15.826a.974.974 0 0 1-.957.957h-9.57zm46.961 0a.974.974 0 0 1-.957-.957v-44.09c0-.516.442-.957.957-.957h9.569c.515 0 .957.441.957.956v44.09a.974.974 0 0 1-.957.958h-9.569zm41.367 0c-4.343 0-8.391-1.03-11.924-3.092-3.607-2.134-6.404-5.005-8.465-8.538-2.061-3.607-3.092-7.729-3.092-12.145s1.03-8.465 3.166-11.998c2.06-3.607 5.005-6.478 8.611-8.539 3.68-2.06 7.803-3.091 12.293-3.091 3.239 0 6.404.589 9.569 1.84 3.091 1.178 5.815 2.87 8.023 5.005.368.295.441.81.147 1.252l-5.373 7.066c-.221.22-.442.368-.736.442-.221 0-.516-.148-.736-.295-1.473-1.472-3.165-2.65-5.153-3.46-1.914-.809-3.827-1.25-5.741-1.25-2.282 0-4.417.588-6.257 1.692-1.914 1.178-3.386 2.724-4.49 4.711s-1.62 4.196-1.62 6.625.516 4.71 1.62 6.698 2.65 3.607 4.49 4.784a12.47 12.47 0 0 0 6.257 1.693c1.178 0 2.429-.22 3.827-.588a21.08 21.08 0 0 0 3.533-1.473v-3.386h-5.078c-.295 0-.516-.073-.663-.294-.22-.147-.294-.368-.294-.662l.073-8.244c0-.516.442-.957.957-.957h14.28c.515 0 .957.441.957.957V60.63c0 .294-.147.589-.442.81-2.282 1.766-5.079 3.238-8.317 4.269-3.24 1.104-6.404 1.693-9.422 1.693zm28.265 0a.974.974 0 0 1-.957-.957v-44.09c0-.516.442-.957.957-.957h9.569c.515 0 .957.441.957.956v18.108h16.635V22.355c0-.515.441-.956.957-.956h9.569c.515 0 .956.441.956.956v44.09a.974.974 0 0 1-.956.958h-9.57a.974.974 0 0 1-.956-.957V50.62h-16.635v15.826a.974.974 0 0 1-.957.957h-9.57zm46.961 0a.974.974 0 0 1-.957-.957v-44.09c0-.516.442-.957.957-.957h9.569c.515 0 .957.441.957.956v34.448h16.561c.516 0 .957.442.957.957v8.686a.974.974 0 0 1-.957.957h-27.087zm36.362 0a.974.974 0 0 1-.957-.957v-44.09c0-.516.442-.957.957-.957h9.569c.515 0 .957.441.957.956v44.09a.974.974 0 0 1-.957.958h-9.57zm41.367 0c-4.343 0-8.391-1.03-11.925-3.092-3.606-2.134-6.403-5.005-8.464-8.538-2.061-3.607-3.092-7.729-3.092-12.145s1.03-8.465 3.165-11.998c2.061-3.607 5.006-6.478 8.612-8.539 3.68-2.06 7.803-3.091 12.293-3.091 3.238 0 6.403.589 9.568 1.84 3.092 1.178 5.815 2.87 8.024 5.005.368.295.441.81.147 1.252l-5.373 7.066c-.221.22-.442.368-.737.442-.22 0-.515-.148-.736-.295-1.472-1.472-3.165-2.65-5.152-3.46-1.914-.809-3.828-1.25-5.741-1.25-2.282 0-4.417.588-6.257 1.692-1.914 1.178-3.386 2.724-4.49 4.711s-1.62 4.196-1.62 6.625.516 4.71 1.62 6.698 2.65 3.607 4.49 4.784a12.47 12.47 0 0 0 6.257 1.693c1.177 0 2.429-.22 3.827-.588a21.08 21.08 0 0 0 3.533-1.473v-3.386h-5.079c-.294 0-.515-.073-.662-.294-.22-.147-.294-.368-.294-.662l.073-8.244c0-.516.442-.957.957-.957h14.28c.515 0 .957.441.957.957V60.63c0 .294-.148.589-.442.81-2.282 1.766-5.079 3.238-8.318 4.269-3.238 1.104-6.403 1.693-9.421 1.693zm28.265 0a.974.974 0 0 1-.957-.957v-44.09c0-.516.441-.957.957-.957h9.569c.515 0 .956.441.956.956v18.108h16.636V22.355c0-.515.441-.956.956-.956h9.57c.515 0 .956.441.956.956v44.09a.974.974 0 0 1-.957.958h-9.569a.974.974 0 0 1-.956-.957V50.62H301.03v15.826a.974.974 0 0 1-.956.957h-9.57zm57.928 0c-.515 0-.883-.442-.883-.957V31.703h-10.084c-.515 0-.957-.368-.957-.883v-8.465c0-.515.442-.956.957-.956h31.577c.589 0 .957.441.957.956v8.465c0 .515-.368.883-.957.883H358.96v34.743a.974.974 0 0 1-.957.957h-9.569z"/><path fill="000" d="M61.535 113.889q1.318-1.378 2.381-3.07t1.693-3.386h2.46q-1.004 2.342-2.44 4.488-1.3 1.948-3.032 3.838v6.357h-2.125v-6.357q-1.732-1.89-3.031-3.838-1.437-2.146-2.441-4.488h2.46q.63 1.693 1.693 3.385t2.382 3.07zm33.53.787q0-1.574-.807-2.854-.767-1.24-2.096-1.948t-2.883-.709q-1.614 0-2.943.728t-2.076 1.988q-.768 1.319-.768 2.933 0 1.535.827 2.834.787 1.22 2.116 1.939t2.873.718 2.874-.748 2.096-2.007q.787-1.319.787-2.874zm2.126.118q0 2.126-1.102 3.917-1.063 1.712-2.884 2.726t-3.926 1.014q-2.185 0-4.016-1.063-1.79-1.024-2.814-2.815-1.063-1.83-1.063-4.015 0-2.106 1.122-3.877 1.063-1.693 2.883-2.687t3.907-.994q2.146 0 3.976 1.043 1.791 1.024 2.834 2.775 1.083 1.83 1.083 3.976zm21.387 7.657q-2.067 0-3.553-.719t-2.263-2.076-.778-3.248v-8.975h2.126v8.975q0 1.89 1.161 2.893t3.307 1.004 3.306-1.004 1.162-2.893v-8.975h2.125v8.975q0 1.89-.777 3.248t-2.264 2.076-3.552.719zm24.516-12.873v4.882q.61-.355 1.358-.473.551-.098 1.417-.098h2.795q1.161 0 1.81-.532.69-.57.69-1.712 0-1.083-.729-1.614-.63-.453-1.771-.453h-5.57zm6.279 10.215-1.792-3.759h-1.712q-.807 0-1.417.099-.748.137-1.358.472v5.511h-2.145v-14.683h7.715q1.358 0 2.401.512t1.614 1.456q.61 1.004.61 2.362 0 1.653-.885 2.716t-2.5 1.476l1.142 2.343q.492.728.767 1.023.335.374.64.502t.797.128h.216l.473-.02v2.185q-1.142 0-1.693-.079-.925-.157-1.574-.61-.768-.551-1.3-1.634zm48.146-2.145q0 1.437-.866 2.559-.846 1.063-2.332 1.653t-3.356.59q-1.712 0-3.326-.797t-2.716-2.214l1.535-1.437q1.91 2.303 4.507 2.303 1.142 0 2.086-.275 1.044-.315 1.614-.886.65-.63.65-1.496 0-1.043-.65-1.574-.55-.453-1.633-.59-.63-.08-2.067-.08-2.637 0-4.025-.964t-1.387-2.834q0-1.181.698-2.244t1.92-1.693q1.259-.669 2.794-.669 1.732 0 3.13.531 1.495.571 2.775 1.792l-1.339 1.574q-1.2-.964-2.184-1.348t-2.382-.384q-.807 0-1.506.335t-1.112.895-.413 1.191q0 1.693 3.13 1.693 2.5 0 3.956.511 1.377.492 1.968 1.496.531.886.531 2.362zm16.939-1.417v3.74h9.054v2.145h-11.2v-14.683h10.334v2.165h-8.188v4.448q.61-.354 1.358-.472.551-.099 1.417-.099h3.208v2.185h-3.208q-.807 0-1.417.099-.748.137-1.358.472zm28.728-7.243-.807-1.81h2.362l7.066 14.938h-2.401l-.965-2.145h-4.468q-1.26 0-2.263.236-.886.216-1.476.57-.532.316-.709.65l-.374.689h-2.322zm1.575 8.818h2.716l-3.208-6.2-3.248 7.026q.433-.374 1.319-.59 1.004-.236 2.42-.236zm23.59-8.228v4.882q.611-.355 1.359-.473.551-.098 1.417-.098h2.795q1.161 0 1.81-.532.69-.57.69-1.712 0-1.083-.729-1.614-.63-.453-1.771-.453h-5.57zm6.28 10.215-1.792-3.759h-1.712q-.807 0-1.417.099-.748.137-1.358.472v5.511h-2.145v-14.683h7.715q1.358 0 2.401.512t1.614 1.456q.61 1.004.61 2.362 0 1.653-.885 2.716t-2.5 1.476l1.142 2.343q.492.728.767 1.023.335.374.64.502t.797.128h.216l.473-.02v2.185q-1.142 0-1.693-.079-.925-.157-1.574-.61-.768-.551-1.3-1.634zm32.33-10.47-1.378 1.613q-.807-.826-1.929-1.299t-2.362-.472q-1.614 0-2.942.728t-2.077 1.988q-.767 1.319-.767 2.933 0 1.535.826 2.834.788 1.22 2.116 1.939t2.864.718q1.417 0 2.637-.61t2.028-1.693l1.318 1.791q-1.122 1.26-2.686 1.959t-3.317.699q-2.185 0-4.015-1.063-1.791-1.024-2.815-2.815-1.062-1.83-1.062-4.015 0-2.106 1.121-3.877 1.063-1.693 2.884-2.687t3.907-.994q1.633 0 3.11.63 1.436.59 2.539 1.693zm17.253 6.298v6.495h-2.126v-14.683h2.126v6.023q.787-.394 1.87-.394.394 0 1.91.177 2.125.256 2.873.256 1.141 0 1.988-.374v-5.688H335v14.683h-2.145v-6.83q-.847.374-1.988.374-.748 0-2.874-.256-1.515-.177-1.91-.177-1.082 0-1.869.394z"/></svg>